<?xml version="1.0" encoding="UTF-8"?>
<svg width="311px" height="79px" viewBox="0 0 311 79" version="1.1" xmlns="http://www.w3.org/2000/svg" xmlns:xlink="http://www.w3.org/1999/xlink">
    <!-- Generator: Sketch 51.1 (57501) - http://www.bohemiancoding.com/sketch -->
    <title>Artboard</title>
    <desc>Created with Sketch.</desc>
    <defs></defs>
    <g id="Artboard" stroke="none" stroke-width="1" fill="none" fill-rule="evenodd">
        <path d="M170.983409,70 C172.606191,69.3395889 173.417582,69.0093833 173.417582,69.0093833 L174,66.9484054 L174,52 L168,52 C168,61.9656036 168,66.9484054 168,66.9484054 L168.48733,68.8469222 C170.151383,69.6156407 170.983409,70 170.983409,70 Z" id="Path-3" fill="#F5A623" fill-rule="nonzero"></path>
        <polygon id="Path-2" fill="#80AB4E" fill-rule="nonzero" points="188.436613 43.446215 183.745079 44.7364899 176.07432 46.0615914 164.960211 45.6724532 154.064731 43.446215 152.161892 43 150 47.1274286 157.378678 50.5099562 166.919001 52 176.541403 52 186.154685 50.5099562 191.628552 47.832666 192 46.0615914 189.68948 43"></polygon>
        <polygon id="Path-4" fill="#FF5B5B" fill-rule="nonzero" points="187.577634 43.3851534 183.946523 44.3916013 174.244861 46 163.536196 45.2778066 153 42.3201825 169.292792 10 173.484486 10 190 42.3201825"></polygon>
        <g id="Popsicle" transform="translate(148.000000, 9.000000)" fill="#000000" fill-rule="nonzero">
            <g id="Group">
                <path d="M45.255,38.256 L26.803,2.322 C26.068,0.89 24.61,0 23,0 C21.39,0 19.932,0.89 19.197,2.322 L0.745,38.256 L1.36,38.769 C1.592,38.962 6.732,43.092 19,43.865 L19,58 C19,60.206 20.794,62 23,62 C25.206,62 27,60.206 27,58 L27,43.865 C39.268,43.092 44.408,38.962 44.64,38.769 L45.255,38.256 Z M25,58 C25,59.103 24.103,60 23,60 C21.897,60 21,59.103 21,58 L21,43.959 C21.655,43.979 22.308,44 23,44 C23.692,44 24.345,43.979 25,43.959 L25,58 Z M23,42 C11.283,42 5.177,38.862 3.29,37.678 L4.802,34.734 C8.291,36.299 14.123,38 23,38 C28.304,38 33.09,37.387 37.228,36.178 L36.666,34.258 C32.712,35.414 28.114,36 23,36 C14.544,36 9.024,34.419 5.717,32.952 L20.976,3.236 C21.368,2.474 22.143,2 23,2 C23.857,2 24.632,2.474 25.024,3.236 L40.279,32.943 C39.654,33.219 39.005,33.487 38.309,33.731 L38.971,35.618 C39.757,35.343 40.489,35.039 41.194,34.723 L42.713,37.681 C40.839,38.87 34.784,42 23,42 Z" id="Shape"></path>
                <rect id="Rectangle-path" x="17" y="16" width="2" height="2"></rect>
                <rect id="Rectangle-path" x="23" y="12" width="2" height="2"></rect>
                <rect id="Rectangle-path" x="27" y="19" width="2" height="2"></rect>
                <rect id="Rectangle-path" x="20" y="23" width="2" height="2"></rect>
                <rect id="Rectangle-path" x="14" y="26" width="2" height="2"></rect>
                <rect id="Rectangle-path" x="30" y="26" width="2" height="2"></rect>
            </g>
        </g>
        <path d="M8.48520843,48.4655415 C7.91014659,47.9479606 7.84625083,47.0421941 8.29352115,46.4599156 C8.80468723,45.8129395 9.69922788,45.7482419 10.2742897,46.2658228 C13.5968693,48.9831224 19.1558004,52.1533052 24.9703146,52.0886076 C28.867956,52.0886076 32.3822229,50.9240506 34.8102618,49.1125176 C37.3021964,47.3009845 38.6440074,44.907173 38.6440074,42.3839662 C38.6440074,39.7960619 37.4299879,37.8551336 35.001949,36.1729958 C32.5739101,34.5555556 28.9957476,33.326301 24.6508358,32.4852321 L24.5230443,32.4852321 C20.3698199,31.7088608 16.7277615,30.5443038 13.9802438,28.6680731 C11.2327261,26.8565401 9.37974908,24.1392405 9.37974908,20.7749648 C9.37974908,17.3459916 11.2327261,14.3699015 14.0441396,12.2995781 C16.8555531,10.2292546 20.6254029,9 24.8425231,9 C30.7209331,9 35.1297406,11.9113924 38.6440074,14.2405063 C39.282965,14.6933896 39.4746523,15.5344585 39.027382,16.2461322 C38.6440074,16.8931083 37.7494667,17.0872011 37.1105091,16.6343179 C33.5962423,14.3052039 29.7624967,11.8466948 24.8425231,11.8466948 C21.2004648,11.8466948 17.941781,12.9465541 15.7054294,14.5639944 C13.4690778,16.2461322 12.1911625,18.4458509 12.1911625,20.7749648 C12.2550583,23.0393812 13.2773905,24.721519 15.5137421,26.2742616 C17.7500937,27.8270042 21.0726732,28.9268636 25.0981062,29.7032349 L25.2258977,29.7032349 C29.6986009,30.5443038 33.6601381,31.838256 36.5993431,33.8438819 C39.538548,35.7848101 41.5193166,38.7609001 41.5193166,42.3839662 C41.5193166,46.0070323 39.4746523,49.2419128 36.4715515,51.4416315 C33.4684508,53.6413502 29.4430179,55 24.9703146,55 C18.1334683,54.9353024 12.1911625,51.4416315 8.48520843,48.4655415 Z M53.0205535,36.625879 L53.0205535,11.1997187 C53.0205535,10.3586498 53.7234069,9.64697609 54.5540518,9.64697609 C55.4485924,9.64697609 56.1514458,10.3586498 56.1514458,11.1997187 L56.1514458,36.625879 C56.1514458,44.9718706 62.8605006,51.7004219 71.039158,51.7651195 C79.3456068,51.7004219 86.0546617,44.9718706 86.0546617,36.625879 L86.0546617,11.1997187 C86.0546617,10.3586498 86.757515,9.64697609 87.5881599,9.64697609 C88.4827006,9.64697609 89.1855539,10.3586498 89.1855539,11.1997187 L89.1855539,36.625879 C89.1855539,46.718706 81.0707924,54.9353024 71.039158,54.9353024 C61.1353151,54.9353024 53.0205535,46.718706 53.0205535,36.625879 Z M102.220289,53.3825598 L102.220289,11.1997187 C102.220289,10.3586498 102.923142,9.64697609 103.753787,9.64697609 C104.648328,9.64697609 105.351181,10.3586498 105.351181,11.1997187 L105.351181,53.3825598 C105.351181,54.2236287 104.648328,54.9353024 103.753787,54.9353024 C102.923142,54.9353024 102.220289,54.2236287 102.220289,53.3825598 Z M132.826358,53.3825598 L132.826358,12.8171589 L119.344353,12.8171589 C118.513708,12.8171589 117.810855,12.1054852 117.810855,11.1997187 C117.810855,10.3586498 118.513708,9.64697609 119.344353,9.64697609 L149.37536,9.64697609 C150.206005,9.64697609 150.908859,10.3586498 150.908859,11.1997187 C150.908859,12.1054852 150.206005,12.8171589 149.37536,12.8171589 L135.893355,12.8171589 L135.893355,53.3825598 C135.893355,54.2236287 135.190502,54.9353024 134.359857,54.9353024 C133.529212,54.9353024 132.826358,54.2236287 132.826358,53.3825598 Z M201.003135,53.3825598 L201.003135,11.1997187 C201.003135,10.3586498 201.705988,9.64697609 202.536633,9.64697609 L212.504372,9.64697609 C218.638365,9.64697609 223.622234,14.6933896 223.622234,20.9690577 C223.622234,24.5274262 221.897049,27.697609 219.341218,29.7679325 C224.388983,31.5147679 228.094937,36.302391 228.094937,41.9957806 C228.094937,49.1772152 222.344319,54.9353024 215.315785,54.9353024 L202.472737,54.9353024 C201.642092,54.9353024 201.003135,54.2236287 201.003135,53.3825598 Z M204.134027,51.7651195 L215.315785,51.7651195 C220.619133,51.7651195 224.900149,47.4303797 224.964045,41.9957806 C224.900149,36.625879 220.619133,32.2264416 215.315785,32.2264416 L204.134027,32.2264416 L204.134027,51.7651195 Z M204.134027,28.9915612 L212.504372,28.9915612 C216.913179,28.9915612 220.491342,25.3684951 220.491342,20.9690577 C220.491342,16.440225 216.913179,12.8171589 212.504372,12.8171589 L204.134027,12.8171589 L204.134027,28.9915612 Z M263.493189,54.9353024 L240.490715,54.9353024 C239.66007,54.9353024 238.957217,54.2236287 238.957217,53.3825598 L238.957217,11.1997187 C238.957217,10.3586498 239.66007,9.64697609 240.490715,9.64697609 C241.385255,9.64697609 242.088109,10.3586498 242.088109,11.1997187 L242.088109,51.7651195 L263.493189,51.7651195 C264.387729,51.7651195 265.090583,52.4767932 265.090583,53.3825598 C265.090583,54.2236287 264.387729,54.9353024 263.493189,54.9353024 Z M274.93053,53.3825598 L274.93053,11.1997187 C274.93053,10.3586498 275.633383,9.64697609 276.464028,9.64697609 L299.466502,9.64697609 C300.361042,9.64697609 301,10.3586498 301,11.1997187 C301,12.1054852 300.361042,12.8171589 299.466502,12.8171589 L278.061422,12.8171589 L278.061422,30.7383966 L296.78288,30.7383966 C297.613525,30.7383966 298.316378,31.4500703 298.316378,32.3558368 C298.316378,33.1969058 297.613525,33.9085795 296.78288,33.9085795 L278.061422,33.9085795 L278.061422,51.7651195 L299.466502,51.7651195 C300.361042,51.7651195 301,52.4767932 301,53.3825598 C301,54.2236287 300.361042,54.9353024 299.466502,54.9353024 L276.336236,54.9353024 C275.569487,54.8706048 274.93053,54.2236287 274.93053,53.3825598 Z" id="SUIT-BLE" fill="#000000"></path>
    </g>
</svg>