<?xml version="1.0" encoding="UTF-8"?>
<svg width="294px" height="63px" viewBox="0 0 294 63" version="1.1" xmlns="http://www.w3.org/2000/svg" xmlns:xlink="http://www.w3.org/1999/xlink">
    <!-- Generator: Sketch 51.1 (57501) - http://www.bohemiancoding.com/sketch -->
    <title>Suitable Logo</title>
    <desc>Created with Sketch.</desc>
    <defs></defs>
    <g id="Page-1" stroke="none" stroke-width="1" fill="none" fill-rule="evenodd">
        <path d="M163.104492,61.8193359 C164.704427,61.1682943 165.504395,60.8427734 165.504395,60.8427734 L166.078613,58.8110352 L166.078613,44.074707 L160.163086,44.074707 C160.163086,53.8989258 160.163086,58.8110352 160.163086,58.8110352 L160.643555,60.6826172 C162.28418,61.4404297 163.104492,61.8193359 163.104492,61.8193359 Z" id="Path-3" fill="#F5A623" fill-rule="nonzero"></path>
        <polygon id="Path-2" fill="#80AB4E" fill-rule="nonzero" points="180.168213 35.2631836 175.52124 36.5656738 167.92334 37.9033203 156.914795 37.510498 146.122803 35.2631836 144.238037 34.8127441 142.09668 38.979248 149.405273 42.3937988 158.85498 43.8979492 168.385986 43.8979492 177.907959 42.3937988 183.329834 39.6911621 183.697754 37.9033203 181.40918 34.8127441"></polygon>
        <polygon id="Path-4" fill="#FF5B5B" fill-rule="nonzero" points="179.168701 35.5478516 175.534668 36.5471191 165.825195 38.144043 155.10791 37.427002 144.563232 34.4904785 160.869141 2.40087891 165.064209 2.40087891 181.593018 34.4904785"></polygon>
        <g id="Popsicle" transform="translate(140.000000, 1.000000)" fill="#000000" fill-rule="nonzero">
            <g id="Group">
                <path d="M45.255,38.256 L26.803,2.322 C26.068,0.89 24.61,0 23,0 C21.39,0 19.932,0.89 19.197,2.322 L0.745,38.256 L1.36,38.769 C1.592,38.962 6.732,43.092 19,43.865 L19,58 C19,60.206 20.794,62 23,62 C25.206,62 27,60.206 27,58 L27,43.865 C39.268,43.092 44.408,38.962 44.64,38.769 L45.255,38.256 Z M25,58 C25,59.103 24.103,60 23,60 C21.897,60 21,59.103 21,58 L21,43.959 C21.655,43.979 22.308,44 23,44 C23.692,44 24.345,43.979 25,43.959 L25,58 Z M23,42 C11.283,42 5.177,38.862 3.29,37.678 L4.802,34.734 C8.291,36.299 14.123,38 23,38 C28.304,38 33.09,37.387 37.228,36.178 L36.666,34.258 C32.712,35.414 28.114,36 23,36 C14.544,36 9.024,34.419 5.717,32.952 L20.976,3.236 C21.368,2.474 22.143,2 23,2 C23.857,2 24.632,2.474 25.024,3.236 L40.279,32.943 C39.654,33.219 39.005,33.487 38.309,33.731 L38.971,35.618 C39.757,35.343 40.489,35.039 41.194,34.723 L42.713,37.681 C40.839,38.87 34.784,42 23,42 Z" id="Shape"></path>
                <rect id="Rectangle-path" x="17" y="16" width="2" height="2"></rect>
                <rect id="Rectangle-path" x="23" y="12" width="2" height="2"></rect>
                <rect id="Rectangle-path" x="27" y="19" width="2" height="2"></rect>
                <rect id="Rectangle-path" x="20" y="23" width="2" height="2"></rect>
                <rect id="Rectangle-path" x="14" y="26" width="2" height="2"></rect>
                <rect id="Rectangle-path" x="30" y="26" width="2" height="2"></rect>
            </g>
        </g>
        <path d="M0.812,39.6 C0.236,39.088 0.172,38.192 0.62,37.616 C1.132,36.976 2.028,36.912 2.604,37.424 C5.932,40.112 11.5,43.248 17.324,43.184 C21.228,43.184 24.748,42.032 27.18,40.24 C29.676,38.448 31.02,36.08 31.02,33.584 C31.02,31.024 29.804,29.104 27.372,27.44 C24.94,25.84 21.356,24.624 17.004,23.792 L16.876,23.792 C12.716,23.024 9.068,21.872 6.316,20.016 C3.564,18.224 1.708,15.536 1.708,12.208 C1.708,8.816 3.564,5.872 6.38,3.824 C9.196,1.776 12.972,0.56 17.196,0.56 C23.084,0.56 27.5,3.44 31.02,5.744 C31.66,6.192 31.852,7.024 31.404,7.728 C31.02,8.368 30.124,8.56 29.484,8.112 C25.964,5.808 22.124,3.376 17.196,3.376 C13.548,3.376 10.284,4.464 8.044,6.064 C5.804,7.728 4.524,9.904 4.524,12.208 C4.588,14.448 5.612,16.112 7.852,17.648 C10.092,19.184 13.42,20.272 17.452,21.04 L17.58,21.04 C22.06,21.872 26.028,23.152 28.972,25.136 C31.916,27.056 33.9,30 33.9,33.584 C33.9,37.168 31.852,40.368 28.844,42.544 C25.836,44.72 21.804,46.064 17.324,46.064 C10.476,46 4.524,42.544 0.812,39.6 Z M45.42,27.888 L45.42,2.736 C45.42,1.904 46.124,1.2 46.956,1.2 C47.852,1.2 48.556,1.904 48.556,2.736 L48.556,27.888 C48.556,36.144 55.276,42.8 63.468,42.864 C71.788,42.8 78.508,36.144 78.508,27.888 L78.508,2.736 C78.508,1.904 79.212,1.2 80.044,1.2 C80.94,1.2 81.644,1.904 81.644,2.736 L81.644,27.888 C81.644,37.872 73.516,46 63.468,46 C53.548,46 45.42,37.872 45.42,27.888 Z M94.7,44.464 L94.7,2.736 C94.7,1.904 95.404,1.2 96.236,1.2 C97.132,1.2 97.836,1.904 97.836,2.736 L97.836,44.464 C97.836,45.296 97.132,46 96.236,46 C95.404,46 94.7,45.296 94.7,44.464 Z M125.356,44.464 L125.356,4.336 L111.852,4.336 C111.02,4.336 110.316,3.632 110.316,2.736 C110.316,1.904 111.02,1.2 111.852,1.2 L141.932,1.2 C142.764,1.2 143.468,1.904 143.468,2.736 C143.468,3.632 142.764,4.336 141.932,4.336 L128.428,4.336 L128.428,44.464 C128.428,45.296 127.724,46 126.892,46 C126.06,46 125.356,45.296 125.356,44.464 Z M193.644,44.464 L193.644,2.736 C193.644,1.904 194.348,1.2 195.18,1.2 L205.164,1.2 C211.308,1.2 216.3,6.192 216.3,12.4 C216.3,15.92 214.572,19.056 212.012,21.104 C217.068,22.832 220.78,27.568 220.78,33.2 C220.78,40.304 215.02,46 207.98,46 L195.116,46 C194.284,46 193.644,45.296 193.644,44.464 Z M196.78,42.864 L207.98,42.864 C213.292,42.864 217.58,38.576 217.644,33.2 C217.58,27.888 213.292,23.536 207.98,23.536 L196.78,23.536 L196.78,42.864 Z M196.78,20.336 L205.164,20.336 C209.58,20.336 213.164,16.752 213.164,12.4 C213.164,7.92 209.58,4.336 205.164,4.336 L196.78,4.336 L196.78,20.336 Z M256.236,46 L233.196,46 C232.364,46 231.66,45.296 231.66,44.464 L231.66,2.736 C231.66,1.904 232.364,1.2 233.196,1.2 C234.092,1.2 234.796,1.904 234.796,2.736 L234.796,42.864 L256.236,42.864 C257.132,42.864 257.836,43.568 257.836,44.464 C257.836,45.296 257.132,46 256.236,46 Z M267.692,44.464 L267.692,2.736 C267.692,1.904 268.396,1.2 269.228,1.2 L292.268,1.2 C293.164,1.2 293.804,1.904 293.804,2.736 C293.804,3.632 293.164,4.336 292.268,4.336 L270.828,4.336 L270.828,22.064 L289.58,22.064 C290.412,22.064 291.116,22.768 291.116,23.664 C291.116,24.496 290.412,25.2 289.58,25.2 L270.828,25.2 L270.828,42.864 L292.268,42.864 C293.164,42.864 293.804,43.568 293.804,44.464 C293.804,45.296 293.164,46 292.268,46 L269.1,46 C268.332,45.936 267.692,45.296 267.692,44.464 Z" id="SUIT-BLE" fill="#000000"></path>
    </g>
</svg>